<?xml version="1.0" encoding="utf-8"?>
<!-- Uploaded to: SVG Repo, www.svgrepo.com, Generator: SVG Repo Mixer Tools -->
<svg width="800px" height="800px" viewBox="0 0 1024 1024" class="icon"  version="1.1" xmlns="http://www.w3.org/2000/svg"><path d="M482.73094 317.742142C459.249221 303.784477 88.632159 91.956382 88.632159 615.943554c0 246.311738 210.842848 344.836434 269.300834 344.836433s70.280949-45.978191 125.290571-46.635022 67.325208 46.635022 125.290571 46.635022 269.300834-98.524695 269.300834-344.836433C877.322345 91.956382 506.048452 303.784477 482.73094 317.742142z m-229.890955 509.04426c13.136626 21.511225-138.591405-201.318794-43.022451-390.978833s216.097498-80.79025 216.097499-80.79025-240.89288-2.627325-173.239256 472.425914zM402.597521 112.974984c-17.241822 23.317511-83.417575 73.23669-154.683771 67.489416-135.96408-11.166132-150.25016-95.076331-159.774214-114.945478 223.322643-169.462476 314.950609 45.978191 314.950609 45.978192v2.134701" fill="#DAAAAB" /><path d="M379.608426 1024c-73.23669 0-303.620269-114.945478-303.620269-382.932649 0-190.152662 45.978191-311.994869 136.62091-364.377165 113.3034-64.533675 258.134702 4.926235 299.350866 27.422707 41.216164-22.496472 185.883258-91.956382 299.350866-27.422707 90.64272 51.561257 136.620911 174.224503 136.620911 364.377165a387.530468 387.530468 0 0 1-125.290571 293.275176c-63.055805 58.12957-138.91982 89.493265-178.329698 89.493265a130.052598 130.052598 0 0 1-79.148172-28.407954 78.162925 78.162925 0 0 0-106.570879 0 130.052598 130.052598 0 0 1-78.983964 28.572162z m-59.443233-735.651058a177.016036 177.016036 0 0 0-88.672226 21.675433c-77.834509 44.336113-117.408595 155.669019-117.408595 331.207184 0 254.850545 218.560616 344.836434 265.359846 344.836433A94.4195 94.4195 0 0 0 437.245373 964.228352a114.945478 114.945478 0 0 1 149.429121 0 94.4195 94.4195 0 0 0 57.636947 21.83964c26.765876 0 93.762668-25.288005 152.384862-79.312379a350.091084 350.091084 0 0 0 112.974984-265.195639c0-175.373958-39.409878-286.871071-117.408596-331.207184-109.198204-62.070558-264.210391 28.736369-270.614496 32.841565a19.048108 19.048108 0 0 1-19.540731 0c-4.762027-3.612572-92.449006-54.845414-181.942271-54.845413z" fill="#892127" /><path d="M670.092069 85.223861c-113.796023-11.494548-141.875561 188.01796-141.875561 188.017961h-34.812059s-49.262348-174.881334 118.722258-255.671585c-3.77678-3.284157 76.028223 85.716485 57.965362 67.653624z" fill="#892127" /><path d="M307.356983 226.771007h-13.465042C155.464744 215.440667 125.743128 133.829378 114.576996 103.122514c-1.149455-3.119949-2.134702-5.747274-2.955741-7.717767a19.048108 19.048108 0 0 1 5.747274-23.153304C198.158779 10.837716 273.037547-11.166132 339.705924 6.568313c92.941629 24.631174 133.336754 117.408595 134.978833 121.349583a19.048108 19.048108 0 0 1 0.985247 11.987171s0 1.806286-0.985247 3.448365a18.8839 18.8839 0 0 1-2.955741 5.747274 229.890956 229.890956 0 0 1-164.372033 77.670301zM152.01638 93.598461c11.166132 30.21424 36.125722 85.716485 144.99551 94.583707 58.786402 4.926235 114.945478-32.841565 137.934573-55.338037-11.822963-21.675433-45.978191-74.550353-105.257216-90.150096-51.725465-13.62925-111.497114 3.448364-177.672867 50.904426z" fill="#892127" /></svg>