<?xml version="1.0" encoding="utf-8"?>
<!-- Uploaded to: SVG Repo, www.svgrepo.com, Generator: SVG Repo Mixer Tools -->
<svg width="800px" height="800px" viewBox="0 0 1024 1024" class="icon"  version="1.1" xmlns="http://www.w3.org/2000/svg"><path d="M810.710494 441.631045a88.356313 88.356313 0 0 0-39.888285-36.426282l-40.490372-18.965751a87.904748 87.904748 0 0 1-50.575334-79.626047v-23.932971H291.259663v23.932971a87.904748 87.904748 0 0 1-50.575334 79.626047l-46.812289 17.611054a65.326474 65.326474 0 0 0-12.794355 6.321917 129.147729 129.147729 0 0 0-26.34132 22.277231c-9.934441 11.891224-15.052183 28.298104-15.052183 61.262384v416.343378a95.430839 95.430839 0 0 0 95.430839 95.430839H736.503232a95.430839 95.430839 0 0 0 95.430839-95.430839V522.009702a164.67088 164.67088 0 0 0-21.223577-80.378657z" fill="#DAAAAB" /><path d="M781.960824 1024H242.189547a121.320594 121.320594 0 0 1-121.170072-121.170072V454.726444c0-37.479935 6.020873-60.208731 20.922534-77.669263a157.596355 157.596355 0 0 1 32.362193-27.545495 88.506835 88.506835 0 0 1 17.310011-8.730266L241.286416 322.116713a76.615611 76.615611 0 0 0 43.350287-68.788475v-25.739233a18.363663 18.363663 0 0 1 18.363663-18.363663h418.300161a18.363663 18.363663 0 0 1 18.363664 18.363663v25.739233a76.465089 76.465089 0 0 0 43.952373 69.089519l43.500809 20.320447a112.74085 112.74085 0 0 1 51.177422 46.812288 195.678377 195.678377 0 0 1 24.836101 95.581362v417.848596a121.320594 121.320594 0 0 1-121.170072 121.01955z m-460.596795-778.197854v7.37557a113.493459 113.493459 0 0 1-65.175952 102.505365H254.833381l-50.424813 18.96575a51.628987 51.628987 0 0 0-10.235484 4.967221 121.170072 121.170072 0 0 0-24.234015 20.320447c-6.321917 7.526091-12.34279 19.417316-12.34279 54.037336v448.254006a84.442746 84.442746 0 0 0 84.292224 84.292224H781.659781a84.442746 84.442746 0 0 0 84.292224-84.292224V484.83081a159.101573 159.101573 0 0 0-20.169925-77.518742 76.013523 76.013523 0 0 0-34.620021-31.459062l-43.500808-20.320447a113.643981 113.643981 0 0 1-65.175952-102.505365v-7.37557H321.062985zM372.390929 0h278.766426a69.99265 69.99265 0 0 1 69.992651 69.99265v128.696164H302.849844V69.541085A69.541085 69.541085 0 0 1 372.390929 0z" fill="#892127" /><path d="M139.232616 455.479053h390.303102A88.657357 88.657357 0 0 1 617.590988 544.13641V793.250037a88.05527 88.05527 0 0 1-88.05527 88.055269h-391.356755V455.479053h1.053653z" fill="#892127" /></svg>