<?xml version="1.0" encoding="utf-8"?>
<!-- Uploaded to: SVG Repo, www.svgrepo.com, Generator: SVG Repo Mixer Tools -->
<svg width="800px" height="800px" viewBox="0 -214.5 1453 1453" class="icon"  version="1.1" xmlns="http://www.w3.org/2000/svg"><path d="M966.956249 807.495144a232.247297 194.280235 0 1 0 464.494593 0 232.247297 194.280235 0 1 0-464.494593 0Z" fill="#DAAAAB" /><path d="M1205.130111 354.112861c-35.559395 12.593952-82.971921 26.484341-111.123108 34.818574a15.74244 15.74244 0 0 1-20.742981-17.409287l15.927646-64.636608-79.453023-116.679264a46.11609 46.11609 0 0 0-61.673325-11.112311c-89.268897 54.265118-305.218138 186.686822-320.590168 205.392546L354.667921 593.397955s-180.575051 134.644166-215.20842 166.684662-49.264578 60.932504-30.37365 89.639308 66.673865 44.264038 122.420625 0 219.83855-160.943302 246.878506-185.205181l485.978394-277.807771s-24.261879 77.600971 9.075054 111.123108c37.041036 37.041036 236.136605-41.671166 281.511875-57.784016 67.970301-24.076673 81.86069-51.48704 72.044815-75.563714-13.334773-31.11447-53.153887-34.448164-121.865009-10.37149z" fill="#DAAAAB" /><path d="M1224.84881 186.763663m-48.56746 107.514964a117.9757 117.9757 0 1 0 97.13492-215.029929 117.9757 117.9757 0 1 0-97.13492 215.029929Z" fill="#DAAAAB" /><path d="M93.899027 1003.442225a97.973541 97.973541 0 0 1-15.00162-1.111231A93.713821 93.713821 0 0 1 13.890389 959.363392c-37.041036-60.562094 16.112851-113.901186 33.892548-131.310473 37.041036-37.041036 222.246217-184.279155 230.765655-190.576131L567.098263 401.895798c8.889849-10.00108 50.005399-45.004859 345.963278-234.840169a70.933584 70.933584 0 0 1 97.788336 21.298595l89.083691 138.163065a22.224622 22.224622 0 0 1 3.148489 16.483261l-14.260799 68.340712c29.077213-8.334233 76.86015-22.595032 112.789955-35.559395 85.935204-31.11447 139.274296-21.854211 158.72084 27.225162a63.895787 63.895787 0 0 1 0 50.931425c-11.667926 26.11393-40.74514 47.227321-88.713282 64.636608l-18.520518 7.037797c-157.053993 59.080453-269.658743 89.824513-308.737036 47.782936-25.002699-27.039956-28.151187-68.525917-25.74352-101.307234L442.455177 758.600976c-18.520518 16.853671-72.785636 59.450863-129.643627 104.640927-51.301835 40.004319-104.270517 81.49028-131.680883 104.640927a132.051294 132.051294 0 0 1-87.23164 35.559395z m857.499987-803.234869a26.299136 26.299136 0 0 0-14.260799 4.259719c-232.432502 148.164145-326.701939 215.393625-336.703019 227.061552a18.520518 18.520518 0 0 1-3.518898 3.518898L306.514574 672.295362c-2.222462 1.666847-192.057772 152.609069-227.431962 187.612848-40.930345 40.374729-37.041036 61.302915-27.410367 76.304534a49.264578 49.264578 0 0 0 34.262959 22.595032 84.268357 84.268357 0 0 0 65.192223-24.817494c27.965982-23.891468 81.49028-65.562634 132.97732-105.752158 55.561554-44.078833 114.456802-89.454102 129.643627-103.344491a22.224622 22.224622 0 0 1 3.889309-2.963283l518.574506-312.44114a22.224622 22.224622 0 0 1 32.781317 24.817494c-5.556155 20.37257-15.927646 84.083152 7.408207 109.085852 7.963823 8.704643 49.449783 20.187365 260.583689-59.265658l18.520518-7.223002c46.4865-16.853671 59.636068-32.966522 63.340172-41.11555a19.446544 19.446544 0 0 0 0-16.298056c-8.889849-22.595032-43.523217-23.335853-102.418465-1.852052-37.041036 13.705183-87.23164 28.336393-121.865009 38.337473a40.374729 40.374729 0 0 1-50.931424-46.11609l13.890388-66.673865-84.083152-129.643627a26.484341 26.484341 0 0 0-22.780237-13.334773z" fill="#892127" /><path d="M1215.131191 320.775929a160.387687 160.387687 0 1 1 146.497298-94.269437 159.276455 159.276455 0 0 1-146.497298 94.269437z m0-276.511335a116.308854 116.308854 0 1 0 47.782937 10.37149 115.938443 115.938443 0 0 0-47.597732-10.37149zM1171.607973 1024c-155.572352 0-282.252695-111.123108-282.252695-248.730558s126.680344-248.730558 282.252695-248.730558 282.252695 111.123108 282.252696 248.730558-126.680344 248.730558-282.252696 248.730558z m0-453.197077c-131.125268 0-237.803452 92.60259-237.803452 203.725699s106.678184 203.725699 237.803452 203.725698 237.803452-92.60259 237.803453-203.725698-106.678184-203.725699-237.803453-203.725699z" fill="#892127" /></svg>