<?xml version="1.0" encoding="utf-8"?>
<!-- Uploaded to: SVG Repo, www.svgrepo.com, Generator: SVG Repo Mixer Tools -->
<svg width="800px" height="800px" viewBox="0 0 1024 1024" class="icon"  version="1.1" xmlns="http://www.w3.org/2000/svg"><path d="M338.014128 730.242076s21.721987 224.886449 36.544048 247.8862 17.633142 30.538558 42.038433 30.538557 40.632892-29.133017 38.332917-53.538308-29.771899-150.392813-29.771899-150.392812-65.549289-39.227352-87.143499-74.493637zM386.058052 289.924632s-75.7714 57.243823-75.7714 202.653357 194.858997 256.70277 229.997504 256.70277 122.15423-136.081857 122.15423-136.081857 26.321937-35.521837 0-57.243823-108.226603 89.443474-125.220864 89.443474-72.704767-52.643873-88.16571-102.221114-7.79436-127.776391 10.860994-126.75418 124.709758 72.321437 149.370601 87.782381 40.760669 26.577489 57.499376 6.38882c11.499875-13.927627 14.183179-29.260794-8.944347-47.788371S461.829452 269.863738 386.058052 289.924632z" fill="#DAAAAB" /><path d="M563.795012 764.613926c-43.18842 0-268.330422-127.009733-268.330422-297.718992 0-166.109309 85.737959-232.297479 89.443474-235.10856a15.460943 15.460943 0 0 1 5.366608-2.555528c69.76591-18.527577 186.809084 77.943599 292.224607 174.798103 9.711006 8.816571 17.249813 15.844273 20.699776 18.527577a58.138258 58.138258 0 0 1 25.555278 38.332917 47.532818 47.532818 0 0 1-12.777639 35.77739c-26.321937 31.944098-55.071625 13.927627-80.499127-2.044422l-2.81108-1.78887-22.744198-14.566508c-30.538558-19.677564-108.35438-69.893686-131.226354-78.582481-8.305465 15.58872-12.777639 75.004742 0 118.576491 14.694285 47.149488 65.421512 94.937859 81.138009 101.071126a366.590467 366.590467 0 0 0 34.371849-32.199651c42.038433-42.421762 85.482406-86.249064 114.998752-62.482655 31.432992 25.555278 15.844273 65.549289 2.938857 83.437983-31.432992 47.277265-105.543299 156.526079-148.34839 156.52608zM400.62456 258.236087c-12.777639 11.372099-75.004742 73.982531-75.004742 208.786623 0 151.798353 210.575493 267.052658 238.175194 267.052658 16.355378 0 73.088096-66.699276 121.515348-142.598453v-0.894434c0.766658-1.022211 19.805341-27.855253 2.555528-42.038433-12.777639 0-54.560519 42.166209-72.57699 60.438233-29.516346 29.771899-42.038433 41.78288-54.816072 41.78288-28.877464 0-93.787871-65.932618-111.54879-123.048665-15.460943-49.321687-12.010981-126.115298 6.644372-149.370601a23.894185 23.894185 0 0 1 21.083105-9.966559c15.333167 1.277764 52.899426 22.616421 148.859496 84.587971l22.360868 14.310956 2.811081 1.78887c29.260794 18.272024 32.58298 18.144248 40.632892 8.433241a17.377589 17.377589 0 0 0 5.877714-12.777639 32.327427 32.327427 0 0 0-13.544297-17.760918c-4.216621-3.322186-11.372099-9.966559-22.233092-19.933117-49.066134-45.360619-196.264537-180.548041-260.663838-168.92039z" fill="#892127" /><path d="M436.657503 1024c-36.544048 0-45.488395-13.79985-61.460445-38.332917l-4.088844-6.38882c-19.294235-29.771899-41.78288-251.080609-48.299476-318.163214a15.333167 15.333167 0 0 1 28.238582-9.455453c25.555278 40.632892 102.987771 88.037934 103.75443 88.421262a15.333167 15.333167 0 0 1 7.027702 9.838783c1.40554 6.516596 34.244073 159.33716 37.694035 190.386823a84.843524 84.843524 0 0 1-20.316446 63.888195 56.988271 56.988271 0 0 1-42.549538 19.805341zM358.075022 705.32568c12.777639 121.770901 29.38857 241.625156 38.332917 256.70277l4.216621 6.516596c14.694285 22.871974 15.844273 24.78862 35.649613 24.78862a26.960819 26.960819 0 0 0 19.677565-9.966558 54.943848 54.943848 0 0 0 12.777639-40.37734c-2.938857-25.555278-29.516346-151.159471-35.77739-180.93137a554.293986 554.293986 0 0 1-74.876965-56.732718z" fill="#892127" /><path d="M432.313105 119.470926m-79.093586 0a79.093586 79.093586 0 1 0 158.187172 0 79.093586 79.093586 0 1 0-158.187172 0Z" fill="#DAAAAB" /><path d="M444.707415 213.897679a106.94884 106.94884 0 1 1 106.94884-106.948839 106.94884 106.94884 0 0 1-106.94884 106.948839z m0-183.103569a76.665835 76.665835 0 1 0 76.665835 76.665835 76.665835 76.665835 0 0 0-76.665835-76.793611z" fill="#892127" /></svg>