<?xml version="1.0" standalone="no"?>
<!DOCTYPE svg PUBLIC "-//W3C//DTD SVG 20010904//EN"
 "http://www.w3.org/TR/2001/REC-SVG-20010904/DTD/svg10.dtd">
<svg version="1.0" xmlns="http://www.w3.org/2000/svg"
 width="400.000000pt" height="400.000000pt" viewBox="0 0 400.000000 400.000000"
 preserveAspectRatio="xMidYMid meet">

<g transform="translate(0.000000,400.000000) scale(0.100000,-0.100000)"
fill="#000000" stroke="none">
<path d="M2223 2575 c-63 -27 -72 -105 -23 -192 29 -51 30 -54 14 -78 -9 -14
-20 -25 -24 -25 -16 0 -30 -56 -30 -125 0 -64 3 -78 24 -102 23 -26 31 -28
110 -32 60 -2 91 1 102 10 11 9 18 9 26 1 7 -7 31 -12 55 -12 l43 0 -25 38
c-24 37 -25 40 -10 75 8 20 15 66 15 102 l0 65 -45 0 -45 0 0 -47 0 -48 -31
49 c-21 33 -28 54 -23 62 5 7 21 30 37 52 53 74 38 187 -29 212 -36 14 -103
12 -141 -5z m105 -77 c7 -7 12 -20 12 -30 0 -24 -28 -78 -40 -78 -24 0 -52 95
-33 113 11 11 48 8 61 -5z m-4 -319 c45 -69 41 -82 -25 -77 l-44 3 -3 47 c-3
45 10 88 26 88 4 0 25 -27 46 -61z"/>
<path d="M2613 2579 c-39 -11 -73 -63 -73 -110 0 -67 18 -101 100 -185 l81
-83 -3 -53 c-3 -50 -4 -53 -33 -56 -37 -5 -55 19 -55 70 0 31 -4 39 -24 44
-52 13 -61 4 -61 -63 0 -51 4 -66 24 -87 54 -57 161 -59 213 -4 26 28 28 36
28 107 0 90 -5 99 -107 197 -74 71 -85 93 -63 135 6 11 21 19 35 19 28 0 45
-26 45 -69 0 -30 1 -31 45 -31 l45 0 0 46 c0 59 -24 100 -72 119 -43 17 -77
18 -125 4z"/>
<path d="M540 2300 l0 -280 45 0 45 0 0 130 0 130 55 0 55 0 0 40 0 40 -55 0
-55 0 0 70 0 70 70 0 70 0 0 40 0 40 -115 0 -115 0 0 -280z"/>
<path d="M794 2530 l1 -50 43 0 42 0 0 50 0 50 -43 0 -43 0 0 -50z"/>
<path d="M950 2505 c0 -74 0 -75 -26 -75 -23 0 -25 -3 -22 -37 2 -31 7 -39 26
-41 22 -3 22 -6 22 -151 0 -172 4 -181 87 -184 l48 -2 3 38 c3 34 1 37 -22 37
l-26 0 0 130 0 130 25 0 c23 0 25 4 25 40 0 36 -2 40 -25 40 -24 0 -25 2 -25
75 l0 75 -45 0 -45 0 0 -75z"/>
<path d="M2860 2300 l0 -280 45 0 44 0 3 117 3 118 42 -3 c47 -4 97 18 114 50
16 29 16 197 0 226 -19 36 -70 52 -166 52 l-85 0 0 -280z m168 121 c3 -81 -2
-91 -50 -91 l-28 0 0 86 0 85 38 -3 37 -3 3 -74z"/>
<path d="M3246 2568 c-2 -7 -9 -42 -15 -78 -11 -67 -52 -284 -75 -403 -15 -77
-13 -81 46 -75 32 3 33 5 41 56 l9 53 51 -3 c50 -3 52 -4 55 -33 6 -71 9 -75
57 -75 25 0 45 4 45 9 0 4 -5 33 -10 62 -17 85 -90 488 -90 494 0 12 -111 5
-114 -7z m89 -335 c6 -33 5 -33 -33 -33 l-39 0 18 103 c10 56 19 104 20 107 1
3 7 -29 15 -70 7 -41 16 -90 19 -107z"/>
<path d="M1250 2433 c-8 -3 -23 -12 -32 -21 -16 -14 -18 -13 -18 1 0 13 -10
17 -41 17 l-41 0 2 -182 c3 -233 2 -228 51 -228 l39 0 0 164 c0 133 3 166 15
176 12 10 18 10 30 0 12 -10 15 -43 15 -176 l0 -164 40 0 40 0 0 194 c0 190
-1 195 -22 210 -23 16 -50 19 -78 9z"/>
<path d="M1452 2429 c-50 -15 -62 -54 -62 -202 0 -68 5 -137 10 -154 31 -87
196 -82 214 7 13 67 10 71 -36 68 -39 -3 -43 -6 -46 -30 -3 -22 -9 -28 -28
-28 -22 0 -24 4 -24 50 l0 50 70 0 70 0 0 85 c0 100 -10 127 -56 149 -38 18
-63 19 -112 5z m76 -117 c3 -49 2 -52 -21 -52 -38 0 -52 63 -21 95 26 25 39
12 42 -43z"/>
<path d="M1714 2430 c-34 -13 -54 -50 -54 -98 0 -41 5 -49 66 -112 58 -60 65
-72 62 -102 -2 -25 -8 -33 -23 -33 -15 0 -21 8 -23 30 -5 41 -14 47 -57 39
-37 -7 -37 -7 -32 -47 3 -25 16 -50 31 -66 22 -22 36 -26 82 -26 50 0 58 3 85
33 23 25 29 42 29 76 0 47 -13 69 -85 139 -46 45 -60 73 -46 96 13 21 41 5 41
-24 0 -23 4 -25 45 -25 50 0 55 9 34 69 -18 51 -93 76 -155 51z"/>
<path d="M1973 2433 c-36 -7 -63 -50 -63 -100 0 -42 5 -50 66 -113 58 -60 65
-72 62 -102 -2 -25 -8 -33 -23 -33 -16 0 -21 8 -23 38 l-3 38 -42 -3 -42 -3 1
-43 c1 -65 36 -96 109 -96 52 -1 59 2 86 32 23 25 29 42 29 76 0 47 -11 66
-92 153 -51 55 -53 60 -39 82 13 21 41 5 41 -24 0 -23 4 -25 45 -25 50 0 55 9
34 69 -17 50 -69 69 -146 54z"/>
<path d="M791 2253 c2 -235 2 -233 50 -233 l39 0 0 205 0 205 -46 0 -45 0 2
-177z"/>
<path d="M1510 1770 l-20 -40 43 0 c24 0 48 5 55 12 9 9 15 9 24 0 7 -7 29
-12 51 -12 l38 0 -20 26 c-12 15 -21 33 -21 40 0 10 -17 14 -65 14 l-65 0 -20
-40z"/>
<path d="M1700 1801 c0 -12 29 -41 40 -41 12 0 31 36 23 44 -10 10 -63 7 -63
-3z"/>
<path d="M1870 1770 l-20 -40 101 0 c90 0 100 2 89 15 -11 13 -9 20 10 40 l23
25 -91 0 -92 0 -20 -40z"/>
<path d="M2104 1801 c3 -5 -1 -14 -9 -21 -25 -21 -17 -32 10 -13 28 20 33 43
9 43 -8 0 -13 -4 -10 -9z"/>
<path d="M2230 1770 l-20 -40 125 0 125 0 20 40 20 40 -125 0 -125 0 -20 -40z"/>
<path d="M1790 1593 c-40 -8 -50 -22 -50 -73 0 -51 16 -74 47 -68 44 8 48 90
4 96 -26 4 -18 22 10 22 10 0 19 7 19 15 0 8 -1 14 -2 14 -2 -1 -14 -4 -28 -6z
m4 -78 c6 -18 -2 -45 -15 -45 -5 0 -9 14 -9 30 0 32 14 40 24 15z"/>
<path d="M1320 1535 c0 -8 6 -12 14 -9 8 3 17 1 21 -5 3 -6 -1 -11 -9 -11 -9
0 -16 -4 -16 -10 0 -5 7 -10 16 -10 8 0 12 -5 9 -11 -4 -6 -14 -8 -22 -5 -9 4
-13 1 -11 -6 6 -18 36 -22 53 -8 18 15 20 61 3 78 -17 17 -58 15 -58 -3z"/>
<path d="M1405 1540 c-3 -5 1 -10 9 -10 12 0 16 -10 16 -40 0 -29 4 -40 15
-40 11 0 15 11 15 40 0 22 5 40 10 40 6 0 10 5 10 10 0 6 -15 10 -34 10 -19 0
-38 -4 -41 -10z"/>
<path d="M1512 1538 c-7 -7 -12 -24 -12 -38 0 -30 16 -50 41 -50 23 0 49 27
49 50 0 39 -52 64 -78 38z m43 -38 c0 -13 -5 -25 -12 -27 -13 -5 -27 32 -18
47 11 18 30 5 30 -20z"/>
<path d="M1652 1538 c-7 -7 -12 -24 -12 -38 0 -30 16 -50 41 -50 23 0 49 27
49 50 0 39 -52 64 -78 38z m43 -38 c0 -13 -6 -25 -12 -27 -9 -3 -13 6 -13 27
0 21 4 30 13 28 6 -3 12 -15 12 -28z"/>
<path d="M1840 1483 c0 -49 3 -63 15 -63 8 0 15 7 15 15 0 8 9 15 20 15 27 0
45 46 31 77 -8 18 -18 22 -46 21 l-35 -1 0 -64z m55 17 c0 -13 -6 -25 -12 -27
-9 -3 -13 6 -13 27 0 21 4 30 13 28 6 -3 12 -15 12 -28z"/>
<path d="M1947 1543 c-14 -13 -6 -24 12 -18 11 3 22 1 26 -5 3 -5 -3 -10 -14
-10 -26 0 -46 -34 -28 -48 6 -5 27 -10 45 -10 29 -1 32 2 32 29 0 43 -17 69
-44 69 -12 0 -26 -3 -29 -7z m43 -57 c0 -11 -19 -15 -25 -6 -3 5 1 10 9 10 9
0 16 -2 16 -4z"/>
<path d="M2030 1536 c0 -10 6 -13 15 -10 18 7 20 -12 3 -20 -10 -5 -10 -7 0
-12 17 -8 15 -27 -3 -20 -9 3 -15 0 -15 -10 0 -11 8 -14 28 -12 25 3 27 6 27
48 0 42 -2 45 -27 48 -20 2 -28 -1 -28 -12z"/>
<path d="M2150 1544 c0 -3 5 -14 11 -25 8 -16 7 -26 -6 -45 -14 -22 -14 -24 3
-24 11 0 24 10 30 23 l11 22 7 -22 c8 -29 24 -30 24 -1 l0 22 16 -22 c8 -12
22 -22 31 -22 14 0 14 3 -1 25 -13 20 -14 28 -4 44 19 30 -1 39 -22 11 l-20
-25 0 23 c0 13 -6 22 -15 22 -9 0 -15 -9 -16 -22 l0 -23 -11 23 c-10 19 -38
32 -38 16z"/>
<path d="M2300 1500 c0 -58 20 -68 44 -22 l15 27 1 -27 c0 -18 5 -28 15 -28
10 0 15 10 15 28 0 42 -11 72 -25 72 -8 0 -17 -10 -21 -22 l-7 -23 -10 23
c-16 36 -27 25 -27 -28z"/>
<path d="M2407 1544 c-12 -13 -7 -24 8 -18 18 7 20 -12 3 -20 -10 -5 -10 -7 0
-12 17 -8 15 -27 -3 -20 -9 3 -15 0 -15 -10 0 -11 8 -14 28 -12 25 3 27 6 27
48 0 38 -3 45 -20 48 -12 2 -24 0 -28 -4z"/>
<path d="M2480 1500 c0 -38 4 -50 15 -50 8 0 15 9 15 20 0 11 5 20 11 20 6 0
13 -9 16 -20 10 -37 23 -20 23 30 0 28 -4 50 -10 50 -5 0 -10 -9 -10 -20 0
-11 -7 -20 -15 -20 -8 0 -15 9 -15 20 0 11 -7 20 -15 20 -11 0 -15 -12 -15
-50z"/>
<path d="M2580 1500 c0 -57 16 -66 42 -22 l17 27 1 -27 c0 -17 6 -28 13 -28
10 0 13 15 13 50 -1 39 -5 50 -17 50 -9 0 -21 -10 -27 -22 l-11 -23 0 23 c-1
13 -7 22 -16 22 -11 0 -15 -12 -15 -50z"/>
</g>
</svg>
