<?xml version="1.0" encoding="utf-8"?>
<!-- Uploaded to: SVG Repo, www.svgrepo.com, Generator: SVG Repo Mixer Tools -->
<svg width="800px" height="800px" viewBox="0 -5.5 1035 1035" class="icon"  version="1.1" xmlns="http://www.w3.org/2000/svg"><path d="M341.019319 933.563937V483.581723a95.460288 95.460288 0 0 1 16.956762-54.481447L590.660534 93.733211s23.551058-29.517326 49.143207-9.891445 27.476234 37.367679 15.700705 56.993561c-9.263416 15.700705-92.006133 160.618215-126.547684 221.379944a17.741797 17.741797 0 0 0 15.700705 26.377185h158.26311s68.769089-7.850353 90.436062 39.251764 216.355719 491.589083 216.355719 491.589083 23.551058 51.184299-17.741797 70.810181-68.769089 5.966268-82.58571-25.59215c-11.304508-25.906164-115.400184-259.689666-152.296841-342.58939a14.758663 14.758663 0 0 0-26.848206 0c-42.07789 86.196872-165.485434 338.664213-176.789942 354.83594a60.918737 60.918737 0 0 1-74.735357 22.92303 58.877645 58.877645 0 0 1-23.551058-81.957682c13.031585-27.476234 120.738424-240.848819 158.263109-314.956148a18.526832 18.526832 0 0 0-15.700705-26.848206l-126.861699-6.908311a24.179086 24.179086 0 0 0-25.59215 22.295002c-6.123275 78.503527-25.59215 326.731677-25.592149 338.193192a43.961975 43.961975 0 0 1-41.292855 41.292855c-27.476234 0.314014-37.367679-37.367679-37.367679-37.367679z" fill="#DAAAAB" /><path d="M152.139834 378.386998m-90.436062 0a90.436063 90.436063 0 1 0 180.872125 0 90.436063 90.436063 0 1 0-180.872125 0Z" fill="#DAAAAB" /><path d="M469.137075 1024a71.752223 71.752223 0 0 1-32.814475-8.00736 77.404477 77.404477 0 0 1-42.862925-63.587856 62.802821 62.802821 0 0 1-55.266483 35.012573c-34.541552 0-52.597363-33.756516-57.935602-53.696413a18.683839 18.683839 0 0 1 0-4.867218V450.767249a119.639374 119.639374 0 0 1 21.509966-68.612082l247.286109-356.40601v-1.09905a55.894511 55.894511 0 0 1 78.503526-13.659613c32.971481 25.278136 40.036799 54.010426 21.352959 85.25483-8.164367 13.659614-74.735357 130.315854-134.24103 235.510579h167.369518c10.990494-1.099049 87.295921-5.809261 114.144128 52.75437 22.766023 49.771236 221.536952 503.521619 230.015333 522.833487 11.147501 24.336093 20.096903 76.933456-27.947256 99.856485a88.865992 88.865992 0 0 1-70.182152 7.222325 77.561484 77.561484 0 0 1-43.019933-43.804968c-11.461515-26.377185-116.185219-261.730757-159.048145-358.133088-65.785955 135.026066-174.434836 356.563017-186.524379 373.833793a89.337013 89.337013 0 0 1-70.339159 37.681693z m-34.070531-501.32352h2.512113l134.869058 7.379331a38.466728 38.466728 0 0 1 32.343453 55.737504c-35.954615 70.967188-154.180926 304.75069-167.997546 334.268016-12.403557 26.377185-5.966268 50.870285 16.642747 62.802821a47.102116 47.102116 0 0 0 55.42349-18.369825c8.00736-11.932536 81.329653-158.891138 186.524379-374.775836a34.227538 34.227538 0 0 1 31.401411-19.468874 34.227538 34.227538 0 0 1 31.40141 20.567924c40.978841 92.16314 150.098743 337.25115 161.874272 364.41337a40.664827 40.664827 0 0 0 21.666973 23.708065 53.539405 53.539405 0 0 0 40.821834-5.966268c26.063171-12.403557 11.461515-47.102116 9.734437-50.399264S785.035265 449.511193 762.42625 400.053971c-16.799755-36.73965-76.305428-31.401411-76.933456-31.40141H515.140141a37.681693 37.681693 0 0 1-32.814474-56.208525c28.889298-50.870285 124.192579-218.082797 134.712051-235.51058 6.437289-10.67648 9.420423-19.625882-12.089543-36.111622-11.461515-8.792395-23.237044 3.925176-25.749156 6.90831L332.226924 403.508126a82.114689 82.114689 0 0 0-14.758663 47.102116v475.417357c2.041092 5.966268 9.263416 23.865072 20.881938 23.865072a28.418277 28.418277 0 0 0 25.121129-25.121129c0-12.874578 19.15486-256.706532 27.319227-361.116222a44.275989 44.275989 0 0 1 44.275989-40.97884z m0 37.681692a6.90831 6.90831 0 0 0-6.90831 6.43729c-10.362466 131.885925-22.295002 285.124808-26.063171 338.82122v-1.256056c14.130635-29.988347 132.513953-264.24287 168.468568-335.210059l-0.785035-1.256056-134.869059-7.379332zM130.629868 530.526832a130.629868 130.629868 0 1 1 130.629868-130.629868 130.786875 130.786875 0 0 1-130.629868 130.629868z m0-223.73505a93.105182 93.105182 0 1 0 93.105183 93.105182 93.105182 93.105182 0 0 0-93.105183-93.105182z" fill="#892127" /></svg>