<?xml version="1.0" encoding="utf-8"?>
<!-- Uploaded to: SVG Repo, www.svgrepo.com, Generator: SVG Repo Mixer Tools -->
<svg width="800px" height="800px" viewBox="0 -42.5 1109 1109" class="icon"  version="1.1" xmlns="http://www.w3.org/2000/svg"><path d="M1021.023317 801.218329a91.580871 91.580871 0 0 0-27.519375-58.196711V220.755012l3.157961-1.353412a65.595362 65.595362 0 1 0-46.767899-122.558965l-195.492827 75.189549a65.565287 65.565287 0 1 0 46.61752 122.558965l87.821393-33.534539v459.408144L101.755892 752.946639a91.580871 91.580871 0 0 0-53.534959 160.00336 77.445235 77.445235 0 0 0 149.025686 16.391321l654.299455-21.65459a75.189549 75.189549 0 0 0-10.526537 38.196291 77.896373 77.896373 0 1 0 131.882469-55.941024 91.430491 91.430491 0 0 0 48.27169-88.122151" fill="#DAAAAB" /><path d="M962.22509 1011.749066a100.0021 100.0021 0 0 1-99.851721-99.851721 95.340348 95.340348 0 0 1 2.255686-20.601936l-645.427087 21.353832a99.400584 99.400584 0 0 1-184.815912-26.015584 114.137735 114.137735 0 0 1 71.580451-195.492827l806.483101-33.38416v-436.099384l-66.918698 25.564447a87.069498 87.069498 0 1 1-61.956189-162.559805L988.541432 6.464797a86.919119 86.919119 0 0 1 70.527797 158.800328v527.529875a113.686598 113.686598 0 0 1-12.932603 164.364354 98.498309 98.498309 0 0 1 16.240943 54.437233 100.0021 100.0021 0 0 1-100.152479 100.152479z m-37.895533-159.251465l-16.69208 28.722408a60.151639 60.151639 0 0 0-8.571608 30.07582 63.159221 63.159221 0 0 0 126.168063 0 62.407326 62.407326 0 0 0-19.398904-45.11373l-18.195871-17.594354 22.256107-11.879949a77.294856 77.294856 0 0 0 40.903114-75.189549 78.046752 78.046752 0 0 0-23.459139-49.173965l-5.564027-5.413647V140.753332l15.03791-6.165543a50.527377 50.527377 0 0 0 30.07582-64.963771 50.226619 50.226619 0 0 0-64.813391-29.023165L797.10884 118.948363a50.226619 50.226619 0 1 0 35.639846 93.836557l116.844559-45.11373v524.973431l-842.122947 35.339088a77.445235 77.445235 0 0 0-45.113729 135.341188l4.96251 4.511372 1.052653 6.616681a62.708084 62.708084 0 0 0 120.303279 13.23336l4.360994-11.278432z" fill="#892127" /></svg>