<?xml version="1.0" encoding="utf-8"?>
<!-- Uploaded to: SVG Repo, www.svgrepo.com, Generator: SVG Repo Mixer Tools -->
<svg width="800px" height="800px" viewBox="0 0 1024 1024" class="icon"  version="1.1" xmlns="http://www.w3.org/2000/svg"><path d="M513.596279 894.433594a106.556189 106.556189 0 0 1-85.83693-43.456628l55.565285 136.962375a28.522616 28.522616 0 0 0 26.908129 19.912015h9.148764a27.984454 27.984454 0 0 0 26.908128-19.777475l53.816258-136.962374a106.556189 106.556189 0 0 1-86.509634 43.322087zM896.229868 642.035348l-12.108658-10.628711a31.48251 31.48251 0 0 0-44.398412 2.959894l-41.7076 47.761928h-70.364756a119.875713 119.875713 0 0 1-16.010337 79.648061h102.654511a31.48251 31.48251 0 0 0 7.937898 0 31.213429 31.213429 0 0 0 19.373853-10.35963l56.64161-64.98313a31.48251 31.48251 0 0 0-2.018109-44.398412zM292.546003 688.317329a117.319441 117.319441 0 0 1 1.479947-17.893906h-83.011577L161.772498 619.836142a40.362193 40.362193 0 0 0-52.33631-3.228976l-14.395849 11.301414a30.944348 30.944348 0 0 0-3.498057 46.954685l67.270322 68.615727a38.209543 38.209543 0 0 0 22.871909 10.897792h0.269081a41.303977 41.303977 0 0 0 9.283305 0h121.086578a119.606632 119.606632 0 0 1-19.777474-66.059455z" fill="#DAAAAB" /><path d="M498.931349 682.128459m-113.148681 0a113.148681 113.148681 0 1 0 226.297362 0 113.148681 113.148681 0 1 0-226.297362 0Z" fill="#DAAAAB" /><path d="M513.596279 811.422017a143.958488 143.958488 0 1 1 143.958488-143.958488 144.093029 144.093029 0 0 1-143.958488 143.958488z m0-255.627221a111.668734 111.668734 0 1 0 111.668734 111.668733 111.803274 111.803274 0 0 0-111.668734-111.534193z" fill="#892127" /><path d="M521.399636 1023.996233h-11.974117a53.816257 53.816257 0 0 1-50.856363-36.595055l-72.651947-179.073596a16.144877 16.144877 0 0 1 1.614488-15.068552 16.68304 16.68304 0 0 1 26.908128 0 123.50831 123.50831 0 0 0 199.254692 0 16.144877 16.144877 0 0 1 27.984454 15.472174L572.121459 987.132097a52.470851 52.470851 0 0 1-50.721823 36.864136z m-80.724385-166.830397l48.16555 118.664847v1.210865a21.257422 21.257422 0 0 0 20.315637 14.799471h11.974117a20.450178 20.450178 0 0 0 19.642934-14.530389v-1.210866l46.551062-119.606632a154.721739 154.721739 0 0 1-146.6493 0.538163zM205.363666 771.059824a65.252212 65.252212 0 0 1-7.265194 0h-1.479948a59.736045 59.736045 0 0 1-36.864136-19.777474L81.048112 661.27466a59.870586 59.870586 0 0 1 5.650707-84.356984l16.817581-14.79947a59.736045 59.736045 0 0 1 84.356983 5.650707l53.009013 60.81237h90.276771a16.144877 16.144877 0 0 1 16.010337 18.297528 150.012817 150.012817 0 0 0 20.046556 99.963697 16.144877 16.144877 0 0 1-13.454065 24.351857H211.821617z m-3.632597-32.424295a26.908129 26.908129 0 0 0 6.727032 0h119.068469a185.935168 185.935168 0 0 1-13.454064-70.902919v-7.265194h-79.917142a16.144877 16.144877 0 0 1-12.108658-5.516167l-57.852476-66.328537a26.908129 26.908129 0 0 0-38.882246-2.690812l-16.817581 14.66493a27.580832 27.580832 0 0 0-2.556272 38.882245l78.571736 90.007691a26.908129 26.908129 0 0 0 16.952121 9.014223h0.672703zM822.097973 771.059824H673.699644a16.144877 16.144877 0 0 1-13.454064-24.351856 150.012817 150.012817 0 0 0 20.046556-99.963698 16.144877 16.144877 0 0 1 16.010336-18.297527h90.276772l53.009013-60.812371a59.870586 59.870586 0 0 1 84.356983-5.650707l16.81758 14.66493a59.736045 59.736045 0 0 1 5.650707 84.356983l-78.302654 89.334987a59.601505 59.601505 0 0 1-34.576945 19.373853 15.875796 15.875796 0 0 1-4.439841 0z m-122.431985-32.558835h119.068469a26.908129 26.908129 0 0 0 6.727032 0h0.672704a26.908129 26.908129 0 0 0 17.086661-9.014223l78.571736-90.007691a26.908129 26.908129 0 0 0-2.690813-38.882245l-16.817581-14.66493a27.580832 27.580832 0 0 0-38.882245 2.690812l-57.852477 66.328537a16.144877 16.144877 0 0 1-12.108658 5.516167h-79.917142v7.265194a185.935168 185.935168 0 0 1-13.857686 70.633838z" fill="#892127" /><path d="M78.357299 804.156822a32.289754 32.289754 0 0 1-27.715372-48.569172L486.149988 17.228602a32.289754 32.289754 0 1 1 55.565285 32.827917L106.207212 788.415567a32.289754 32.289754 0 0 1-27.849913 15.741255z" fill="#832024" /><path d="M944.93358 804.156822a32.289754 32.289754 0 0 1-27.849913-16.010336l-430.530057-738.359048a32.289754 32.289754 0 1 1 55.699826-32.558836l430.530057 738.359048a32.289754 32.289754 0 0 1-27.849913 48.569172z" fill="#832024" /></svg>